<svg xmlns="http://www.w3.org/2000/svg" width="470" height="180" contentScriptType="text/ecmascript" version="1.2" viewBox="0 0 352.5 135">
  <defs>
    <clipPath id="a">
      <path d="M6.6 3h318.2v122H6.6Zm0 0"/>
    </clipPath>
    <clipPath id="b">
      <path d="M198 76h153v58H198Zm0 0"/>
    </clipPath>
  </defs>
  <path d="M90.9 78.8a34.9 34.9 0 0 1-9.4-29c1.2-6.9 4.7-12.6 9.1-14.9 14.5-7.3 23.8 0 28 5.2l-1.1 1.4a15.4 15.4 0 0 0-6.8-2.4c-9.8-1-13.5 8.2-13.9 9.3v.1c-.9 1.4-1.3 3.4-1.3 5.6 0 1.4.2 2.5.3 3 1.6 10 6.8 13.5 7.8 14l.1.2.2.1a23.4 23.4 0 0 0 12.6 7.9h.3l1 .3h.3l1.2.3h.1a37 37 0 0 0 5.2.6h3.6a23.9 23.9 0 0 0 3.3-.3 33.8 33.8 0 0 0 14.5-5.6l1.2 1.4-2.4 2.7a36.2 36.2 0 0 1-19 10.8h-.3l-.8.2a36 36 0 0 1-15.6-.7h-.2l-4.9-1.6c-7.7-3-13-8.4-13.1-8.6Zm-1.3 15.4A50.3 50.3 0 0 1 63 81c-8-6.8-10.5-5.3-10.6-5.3l-.1.2v1.5c0 2.2-.6 4.1-1.8 5.7a9.6 9.6 0 0 1-6.3 3.3l-3.6.4c-4.4.4-6.4.6-8.9 1-2 .4-3.3.4-4.1 0h-.1l-.6-.3c-.6-.5-.8-1.2-1-1.7l-.2-1.6c0-2.3 1.5-3.9 3.2-5.4l.6-.6c3-3 5.8-7.8 7-10 1.6-2.8 3.5-4.4 5.7-4.8a7.9 7.9 0 0 1 6.2 1.6h.2c10.7-3 19 4.2 21.7 6.5 10.2 8.9 17.8 8.3 19.8 7.9h.5l.3.2 2.8 2.4.8.6.5.4 1.3 1 .9.5.5.3 1.3.8 1 .6.6.3 1.8.8 1 .5-.6 1c-4.6 5.9-12.8 5.4-13.2 5.4Zm-50-11.7c.5-.2 1.1-.7 1.1-1.1l-.4-.7c-.2-.2-1.2-.2-2.4.6-.5.3-1 .9-1 1.3l.1.3c.4.2 1.3.2 2.6-.4Zm220-57.6a22.4 22.4 0 0 0-.5 1.7 15.3 15.3 0 0 0-.1 2.6 56 56 0 0 0 5.2 21c.3.8 3.4 8.8 3.6 14.8a20.4 20.4 0 0 1 0 4.1 12.4 12.4 0 0 1-.6 2.5 8 8 0 0 1-2.5 3.6c-3.6 2.8-9 2.2-12 1.2a13.4 13.4 0 0 1-6.8-6l-.3-.5h-1l-3 .2h-1.3l.4 1.2A25.3 25.3 0 0 0 253 85a22 22 0 0 0 17.5 1c5-2 8.5-6 10.6-12.1v-.1a12.7 12.7 0 0 0 .6-2.7l.2-2.9a52 52 0 0 0-5-19.6l-3-7.8-2.6-6.7c-.2-.4-.7-1.8-1-3.5v-.2a12.3 12.3 0 0 1-1.1-4.8v-1.2a8 8 0 0 1 4.5-6.4l1.8-.7 3.4-.8-3.3-1c-1.5-.4-4.5-1-7.8.3a14.4 14.4 0 0 0-8.2 9.1ZM131.9 9a16.5 16.5 0 0 0-7.9 9.8c-.7 2.1-1 4.4-1 6.8 0 4.4 1.3 9 3.8 13.7a52.1 52.1 0 0 0 14 17.6l12.7 10.4 2.1 1.6h.1l10.7 9.3a48.4 48.4 0 0 1 7 11.4v1.1c0 1.4-.4 6-6.3 7.4a13.9 13.9 0 0 1-9-.9 16.7 16.7 0 0 1-5.3-3.8c-.7-.8-1.4-1.6-1.9-2.5l-1.7.7a17.9 17.9 0 0 0 5.5 9.4 18.1 18.1 0 0 0 16.4 6 17 17 0 0 0 11.3-6.6 16.3 16.3 0 0 0 3.9-12.7L186 86a31 31 0 0 0-4.4-11.2v-.1a64.3 64.3 0 0 0-14-14.3h-.1l-5.6-5.1-12.4-10.5a39 39 0 0 1-8.2-8.6h-.1l-.2-.2a7.8 7.8 0 0 1-3-2.7l-.3-.6h-1.3a78.9 78.9 0 0 1-3.9 0l-1.8-.1-.5-.2-.1-.1V32l.2-.3.3-.4a24 24 0 0 1 5.5-2.9l1.1-.4-.2-1a18.7 18.7 0 0 1-.3-2.2v-.3c0-.5.3-4.9 3.8-8 2.7-2.5 6.6-3.6 11.6-3.2h.4a15 15 0 0 1 10.3 6.2l.2.4h.9l1.6.2-.6-1.5a24.4 24.4 0 0 0-5.8-8.2C154.4 6 145.7 2 132 8.9Zm64.7 7.2a23.4 23.4 0 0 0-2.8 3 17 17 0 0 0-3.1 16c1.5 5 7.5 10.3 13.9 16l.6.5c1.3 1.1 12.2 11 14.6 17.3v.1l.1.1v.4l.1.1v.3h.1v.2c.4 1.3.5 2.4.6 3.5v.5a13.5 13.5 0 0 1-.3 2.7 8 8 0 0 1-1.6 3.2c-2.2 2.6-5.8 3.2-8.4 3.3a19.8 19.8 0 0 1-2.3 0 51.1 51.1 0 0 1-13-2.7l-.7 1.7 2 1.3a61 61 0 0 0 9.2 4.5c9 3.4 16.6 2.4 22.3-2.8a20.5 20.5 0 0 0 6.4-14.6v-1.7a25 25 0 0 0-8.2-16l-5.4-5.3-9.8-9.5-2.3-2.5-.2-.2-.2-.1c-.1-.1-5.8-5-5.8-12.1a14.1 14.1 0 0 1 1.3-6l.5-1.1c.9-1.7 1.8-3 3-3.9l-.9-1.6-1.8.6a25 25 0 0 0-7.9 4.7Zm0 0" style="stroke:none;fill-rule:nonzero;fill:#008037;fill-opacity:1"/>
  <path d="M159.2 77c-1.9-.5-4-.7-6.2-.7h-1.6l.7-1.4 2.5-4.3.3-.4.6-.8.8.6 9.5 8.3-.3.7-.5 1-1-.6-.2-.2a15.4 15.4 0 0 0-4.6-2.1ZM147 71.3a43.8 43.8 0 0 0-8-8.3l-.8-.6-.7 1.1-.5.7-.1.2-.4.5-.2.2-.4.5-.3.4-.5.5-.6.7-.1.1-.6.6-.2.2-.5.5-.3.2-.5.5-.2.2-.8.6-.8.7.7.7a36.7 36.7 0 0 1 4.6 6.3l.5.8.7-.2a34.2 34.2 0 0 0 10.1-5.4l.7-.5-.5-.8-.4-.5Zm-32 3.4h4.1l1.1-.1.7-.1.2-.4.3-.5L123 70l.6-1.4-1.6.1a24 24 0 0 1-15-3l-1-.7-.4 1.6-.2.7v.3l-.3 1-.1.2-.2.7-.3.7-.2.8.7.4a191 191 0 0 0 .8.5h.1l.6.3.5.3h.2l.6.3h.1l.7.3h.1l.8.3h.2c.2.2.5.2.8.3l1 .3h.2l2 .4h.2l1 .2Zm15 5.2c1.5-.1 3-.4 4.6-.7l1.2-.3-.6-1.2a46.3 46.3 0 0 0-4.6-6l-.5-.6-.8.6-.7.3-.3.2-.7.4-.3.2-1 .5h-.3l-.9.4-.3.2c-.3 0-.5.2-.8.3l-.4.1-.9.3h-.3l-1 .4.7 1.5c.5.9 1 1.8 1.3 3l.3.5h.6a42 42 0 0 0 5.7 0Zm-8.5-3.4-.7-1-.3-.4h-1l-1.3.2v1-1h-2.7l-1-.1h-.3l-1-.2h-.2l-.9-.2h-.1l-1-.2-.7 1.7a27.6 27.6 0 0 0 8 3h.3a27.2 27.2 0 0 0 3 .5l1.6.2-.7-1.5-1-2Zm50 14.8-.6.2h-.4l-.3.2a5 5 0 0 1-1 0 4.3 4.3 0 0 1-1.5-.2l-.6-.3-.4.5a8.7 8.7 0 0 0-2.1 5.2l-.1 1.2 1.1-.2c.5 0 .9 0 1.3-.2 4-1 5.4-3.5 5.8-5.4l.4-1.8-1.7.8Zm-67.7.7.5-.3 1.3-.6.3-.2.6-.3 1.8-1.2-3.7-1.1-.6-.2-.4.6c-.6.8-1.3 1.6-2 2.2l1 1.6.4-.2.8-.3Zm20.4-38.2.7-.4-.2-.7a19.4 19.4 0 0 0-7-10.4l-.7-.5-.6.7c-2.6 3.3-6.4 5-9.2 5.7l-1 .3.4 1c.4 1.2.6 2.9.6 4.8V57h1c4.4-.1 10.9-.8 16-3.3ZM151.6 91l.5.7a13.7 13.7 0 0 0 6.6 5.2 15.7 15.7 0 0 0 4.4 1h1V97a11.6 11.6 0 0 1 .7-3.2 9 9 0 0 1 1.4-2.3l.5-.6-.6-.6-.3-.3a8 8 0 0 1-.5-.7v-.1l-.5-.8-.2-.6v-.1l-.3-.6h-.6c-4.5-.2-8.4 1-11.4 3.4Zm9.8-70.7 1.1-.5-.8-1a16 16 0 0 0-2.1-2l-1-.7-.5 1c-.9 1.8-2.2 3.4-3.8 4.7l.9 1.6a23.7 23.7 0 0 0 6.2-3Zm-18-1.4h1.1l.2-.7c.3-.7.4-1.5.4-2.3l.1-1.5-1.4.6a10.8 10.8 0 0 0-4 3.1l1 1.5 2.5-.7Zm14.4-2.3.4-.8-.8-.4a12 12 0 0 0-5.2-1.5 23.7 23.7 0 0 0-5.8.3l-.7.2v.9c0 .9-.1 1.8-.3 2.6l-.3.9 1 .2c.7.2 1.4.6 2 1a9 9 0 0 1 2.3 2.6l.5.7.8-.4a14 14 0 0 0 6.1-6.3Zm-42 25.8.8-1-1.2-.5c-1.5-.7-3.1-1.1-4.8-1.3A12 12 0 0 0 100 44l-1.7 2 2.6-.4.4-.1c1.5-.2 2.7.1 3.7 1l.7.9.4.5.6-.2c2.7-.7 6.5-2.3 9.1-5.3Zm88.8-25.7-.4.8.6.5a11.8 11.8 0 0 1 2.5 3c.5.7 1 1.5 1.3 2.4l.3.9 1-.4c1.1-.5 2.7-.8 4.5-.9h2.2l.1-.8a24.3 24.3 0 0 0 .1-2.1v-.4c0-3.2-.8-6.3-2.2-9.2l-.3-.6-.7.1c-5.2 1.3-7.3 3.4-8.9 6.5v.2Zm64.9 11.5 2-2.8a4.3 4.3 0 0 1 .4-.6l.3-.3h.1l.3-.3.6-.4.1-.1.5-.3v-.6l-.4-2.3-.4-1.7-1.2 1.2a7.1 7.1 0 0 0-2.1 4.8ZM243 25.8l5 .7-1.2-1.8-.1-.2-.6-.6-.7.4Zm-36 1-.9-.5 1 .4.1-.5a12.9 12.9 0 0 1 .8-1.1l.4-.4-.2-.6a14.9 14.9 0 0 0-3.2-5l-1.1-1.2-.5 1.5v.2a14 14 0 0 0 1 10.3l1.5 2.9.3-3.3c0-.9.3-1.8.8-2.8Zm-17.6 50.4-.2.7.8.3a63 63 0 0 0 10.4 3.4l1 .3.1-1c.5-3.4 1.6-6.4 3.3-8.8l.6-.9-3.5-2-1.7-1-1.9-1-1-.5-.8-.5-.6-.3-.5.5c-3 2.9-5 6.6-6 10.8ZM285.2 34l-1 .3.4 1c1.7 3.7 3.6 5.8 6.2 6.3l2.7.6-1.7-2a17.6 17.6 0 0 1-3-6.6l-.4-1.2-1 .6c-.7.4-1.5.8-2.2 1ZM167 36.7v-1h-.9l-1.4-.2h-.5c-1.3.5-5.7 2.3-11.3 2.6h-.7l-.1.7-.4 1.3.9.4-1-.3-.3 1.2-.3.8.8.4a26.4 26.4 0 0 0 13 2.1h.6l.2-.7.2-.8a62 62 0 0 0 1.2-6.5Zm115.4-12.5-1.1 1.8-.4.4.3.6a23 23 0 0 1 1.7 4l.2.4.5 1.6.3.8.8-.2c1-.3 2-.8 3-1.5l.5-.4-.2-.6-.2-.7-.1-.6-1 .2 1-.3a28 28 0 0 0-3-7l-1-1.4-.7 1.6-.6 1.3ZM162.8 45.3h-2.1c-3.3-.2-6.3-1-9-2.2l-.8-.3-.5 1.1-.3.7 11 9.3 1 .7.5-1.1a67.4 67.4 0 0 0 2.5-7l.3-1.3h-1.3l-1.3.1Zm-39 9.1c-5.5 2.6-12.3 3-15.9 3.1l-.8.1-.1.9-.1 1-.2 1.2v.5l-.1.6-.1.5-.2 1.1-.2 1 .5.3c2.4 1.7 7.7 4.4 16.6 3.4l.6-.1.2-.6a30.2 30.2 0 0 0 1.2-12.2l-.2-1.3ZM221.1 9c-1.9.2-3.5.3-5 .6l-1.2.2.5 1c1.3 3 2 6 2 9.2v.5l-.1 1.4-.1 1.2h.9a24.6 24.6 0 0 1 2.7.5c.3 0 1.8.3 3.4.8l.1.1h.2c.7.3 1.5.6 2.1 1l.7.2.4-.6.3-.3c2.4-3.2 4-7 5-11.5l.3-.7-.7-.4A31.3 31.3 0 0 0 221.3 9h-.1Zm8.2 14.9-.3.5-1.1 1.6 1.9-.1a53.1 53.1 0 0 0 5.5-.5l1.7-.1h.3l1.7.1 2.3.2 1 .1.4-.2 1.3-.9 1-.6 1-.6-.8-.8-.5-.7-1.3-1.3-.1-.2-.6-.6-.7-.7-.5-.5c-2.1-2-4.4-3.7-6.7-5.1l-1-.7-.3 1.3c-1 3.6-2.3 7-4.2 9.8Zm44.2-5.2.2.8.5 2.6.1 1 1-.2c.9-.1 1.7 0 2.5.4l.3.1A6 6 0 0 1 280 25l.8 1 .7-1.1a14.3 14.3 0 0 0 1.6-3.6l.2-.5-.4-.4-.5-.6h-.1c-2.5-2.3-5.3-2.8-8.1-1.4Zm-94 51.8-.1.4.2.3 2.4 3v.2h.2c.6.4 2.6 1.5 5.6 2.9l1 .4.3-1c1-4 2.8-7.4 5.5-10.1l.9-1-1.2-.5-1.3-.7-1-.5-1-.4-.8-.4-.3-.1-1.1-.5h-.1l-1-.4-.4-.1-.7-.3h-.3l-.8-.4-1.4-.4-.3.4c-2.4 1.9-3.9 5-4.4 9.2Zm85.2.9.2.9-.3-.9h-.2l-.4.1h-.3l-.4.1h-1.1l-.2.4c-.8 1-1.5 2-2 3l-1 1.8 2-.5a7.8 7.8 0 0 0 5.2-3.7l1.2-2.2-2.5 1Zm-44.5 2.8V74l-.1-1.7-1.4 1h-.1l-.2.1-.4.2-.2.1-.5.2h-.2l-.7.2h-.7l-1 .1v.8a20.3 20.3 0 0 0 .5 5.7l.4 1.2 1-.7a9 9 0 0 0 1.8-1.5c.5-.6.9-1.3 1.2-2a9 9 0 0 0 .6-3.5Zm-5.6 6.2a17.4 17.4 0 0 1-.4-5.3v-.9l-.8-.1h-.3l-.4-.1-1-.2h-.1l-.9-.3-.4-.1-.6-.3-.5-.1-.6-.3-.5-.2-.7-.3-.4-.2-1-.5-.5.6a20 20 0 0 0-3.4 9v.9l.8.1a46.6 46.6 0 0 0 9 .7l2.3-.5.9-.2-.3-1-.2-.7Zm-41-21h-1.1l-.1.1a16.5 16.5 0 0 0-2 .3l-2 .4 1.6 1.2c1.7 1.4 4.4 3.8 7.6 7.4l1.2 1.4.4-1.8a14 14 0 0 1 3.1-6.6l1.1-1.1-1.8-.5-.6-.1-.5-.1-.7-.1-.5-.1-.6-.1h-.5l-.7-.2H176l-.7-.1h-1.4Zm74.2 11-.9.7.7.8a13.2 13.2 0 0 0 5.3 4c1.5.5 3.4.8 5.2.8h.6l.2-.6c.5-1.1 1-2.2 1.7-3.2l1-1.2-1.2-.5h-.4l-.2-.2h-.2l-.2-.2h-.2l-.1-.2a7 7 0 0 1-.5-.3l-.2-.2h-.3l-3-.1-3.1-.1h-2.8l-.2-.2-.6.4-.6.4ZM139.9 59.6l-.4.8-.5 1-.4.7.7.5.6.5 1.1.9a43 43 0 0 1 6.7 7.3l.7 1 .7-.8.4-.3c1-.9 2-2 2.8-3l.6-.7-11.1-9.1-1-.8-.7 1.6Zm24.6 22.2v-.1l.3-.9-.5-.4a13.5 13.5 0 0 0-2.4-1.6 20 20 0 0 0-10-1.9h-.7l-.3.8-.2.4v.2c-.7 2-1 3.9-1 5.7a14.2 14.2 0 0 0 1.2 5.6l.4 1.1 1-.7c1.2-1 2.5-1.7 3.9-2.2a19 19 0 0 1 7-1.2h1l-.1-1h-1l1-.1V83a14 14 0 0 1 .4-1.3Zm0 0" style="stroke:none;fill-rule:nonzero;fill:#7ed957;fill-opacity:1"/>
  <path d="M121.9 102.9c0 1 .5 2 1 2.5l.2.2 1.5 1.2-1.9.4c-3.8.8-5 .4-5.5 0-.4-.3-.6-.7-.6-1.1v-.2c0-.5.2-1.4 1.6-2.7h.1l3.4-1.5Zm-14.5-.4a3 3 0 0 0 .3 1.2c.2.5.5.9 1 1.1.4.3 1 .4 1.6.4.5 0 1-.2 1.7-.4.4 0 .8-.2 1.2-.4h.2l.3-.2 8.1-3.6h.3l.1-.3.2-.3a8.9 8.9 0 0 1 1.6-1.7c.8-.7 1.6-1.3 2.5-1.8 1.7-1 3.5-1.7 5.6-2.4l4.7-1.1 1.2-.3a90.4 90.4 0 0 0 9.7-2.8l.7-.2-.1-.7v-1.5c0-5.7 2.2-11 4.2-14.4l-1.4-1.2-.4.3-.1.1a39 39 0 0 1-31.8 18.5h-.3c-4.4 2-5.7 3.1-7.4 4.8a14 14 0 0 0-3.3 4.9 7.3 7.3 0 0 0-.4 2ZM172 89.3l.6-.4-.3-.7a36 36 0 0 0-2.8-5l-.1-.3h-.2l-2.7-1.8-1.1-.7-.4 1.3-.1.5-.1.5v.2l-.1.4v.7l-.1.2v1.9a10.1 10.1 0 0 0 .2.6l.1.4v.2l.3.5v.2l.2.4.1.2.3.4v.1l.4.6a5 5 0 0 0 3 1.4h.2l.3-.2 2.3-1.6Zm-43.2 15.8 5.9-1.4.3-.1c3.5-1 9.8-2.5 14.8-3.7l2.5-.6-.8-1.1a18.3 18.3 0 0 1-3-7l-.1-1.3-1.1.4a47 47 0 0 1-9.2 2.9l-1.1.2-4.7 1.3a25.1 25.1 0 0 0-7.7 4.2 9.8 9.8 0 0 0-1.4 1.5l-.1.2-.2.2v.2l-.1.1-.1.8v.2c0 .5 0 1 .2 1.5s.4 1 .7 1.3c.5.4 1.1.5 2.2.5a15.2 15.2 0 0 0 3-.3Zm-19.3 1.5-1.5-1.2a3.7 3.7 0 0 1-1.5-2.7v-1.8l-1.5 1c-2.3 1.8-3.4 3.2-3.4 4.3l.1.5c.1.3.4.6.7.8.6.4 1.7.6 5.3-.4Zm44.3 12.3-.2-1.6-1.3 1c-2.4 1.8-2.6 3.3-2.6 3.6 0 .5.2.8.5 1 .6.5 1.5.6 4.3-.3l1.5-.4-1.2-1.1a3.7 3.7 0 0 1-1-2.2ZM257 69.2h1.5a148 148 0 0 1 7.2.6h.6l.3-.4.2-.6v-.1c.2-.2.2-.5.3-.7v-.1a10.8 10.8 0 0 0 .2-2.7V65a53.3 53.3 0 0 0-3.6-14.8 56.4 56.4 0 0 1-5.3-22v-1h-1a68.2 68.2 0 0 1-9.3 0h-.7a327.6 327.6 0 0 0-8.3-1 25 25 0 0 0-5.2.1l-2.1.2h-.2l-1.6.2h-2.7l1.1 1.5 1 1.5a14.6 14.6 0 0 1 .8 1.6l-.2-.4a12.1 12.1 0 0 0-4-4.5h-.2l-1.6-1-.2-.2-1-.5-.3-.3h-.1a29 29 0 0 0-2.8-.6l-.5 1.3c-1.5-.8-3.2-1.3-4.9-1.6h-1.6V25l-3.3-.3h-.3l-.3.2-.7.7-1 1.4h.3l-.2.5a7 7 0 0 0-.5 2.4c0 3.2 2.3 5.8 4.5 7.9 3.3 3.4 6.8 6.6 9.8 9.6l5.4 5.2c4.5 4.3 7.2 9.4 8 14.5l1.8.1.2-.5a16.5 16.5 0 0 0 .7-4v.6a14.9 14.9 0 0 1-.8 4.9l-.5 1.4 1.5-.2 1.2-.1 1.2-.1 1.1-.1 2.8-.1h2.6a165.4 165.4 0 0 1 9.2 0ZM191.3 19c-2.2.2-4.5.6-7 1a79.1 79.1 0 0 1-15.2 1.4h-1.2a10 10 0 0 1-2.2-.3h-.3l-1.2-.3h-1.7l-1 .5a28.8 28.8 0 0 1-10 4.1l-.5.1-.2.3-.2.2-.5.5-.2.2c-.5.4-1 .8-1.5 1a21.8 21.8 0 0 1-3.4 1.4l.5-.2a24.4 24.4 0 0 0 2-1L147 26l-.5.1a148 148 0 0 0-7 1.6l-.7.3-1 .2c-.3 0-.5.2-.8.3l-.6.1-.4.2a23.2 23.2 0 0 0-4.6 2l-.6-.3-.9.5v1l-.4.3 2.1.4a15.7 15.7 0 0 0 3 .4h2l2.4.1-.5-1.4-.1-.3v-.2l.2.4v.1c.4 1.3 1.4 2.4 3 3.3.9.6 2.1 1 3.2 1.4a24.9 24.9 0 0 0 9 .6h.1c5.9-.6 10.4-2.6 10.5-2.6h.4l2.3-1.2-1.7 1.3 3.4.2a535.8 535.8 0 0 0 9.4.7h.1a9 9 0 0 1 2.4.5l2.3 1 2.1 1.5-2.3-1.2a11 11 0 0 0-2.3-.8l-2-.1h-.3a97 97 0 0 0-11.6 7.6l-.3.2v.4l-.3.9-.5 1.7v.3l-.5 1.4-.7 2v.1l-.2.3-.6 1.6-.8 2 5.3 4.9.5-.2h.2l.6-.2.5-.1.6-.1.6-.1a28 28 0 0 1 2.8-.3h2.3a30.4 30.4 0 0 1 1.8.1l.6.1h.6l.5.2h.7l.5.2a47.6 47.6 0 0 1 2.3.5l.7.2a70 70 0 0 0 1.1.4l.5.1.7.2.5.2 1.1.4 1.2.5 1.1.4 1.1.5 1.1.5 1.1.5 1 .5 1.1.6 1 .5 1.1.6 2 1 1.6 1 2.1 1.2 3 1.7c2 1 4 1.9 5.9 2.3l.5-1.2 1 .4c1.6.5 3.2.7 4.6.3h.3l.2-.1.3-.3 1.5-1.4-1.1-.1h1l-.6-1.1-.2-.5.3.1-.3-.6v-.4h-.2l-1-1.6c-2.5-4-7.9-9.9-13.4-14.8l-.7-.5c-6.4-5.7-12.4-11.1-14-16.3a18.4 18.4 0 0 1-.8-6.7v-.8l.1-.6c0-.4.2-.7.3-1l.2-1 .2-.6.5-1.3.5-1.2.3-.4.7-1.2 1-1.6Zm94.4 4.2.6 1.2 1 2.2v.3l.3.6.2.6.1.4.4 1.1v.4l.3 1 .1.3.3 1.3c1.9 7.8 5 8.8 5.4 9h.1c.2 0 .2.1.2.2s0 .2-.2.3c-7 1.6-9.9-4.4-11.8-10.5l-.2-.4c-1-3-2.1-5.2-3.5-6.5l-.3-.3h-.5l-5.8 1-.4.1-.2.4-.7 1.3v.2l-.2.7v1.3h-.1v1c.2 1.2.5 2.5 1 3.6l2.6 6.7c1 2.9 2.2 5.9 3 7.7 1.9 4.4 3.3 8.5 4.1 12.3l.1.5.2 1.2.2.7v.6l.2 1.1v.4l.1 1v1l.1 1V70l-.2 1.5-.1.9.9.1 7.7 1.6h.1c9.4 2 16.1 3.5 22.3 2.2 5.9-1.3 10-12.5 10-27.4v-1c-.2-14.7-4.3-25.3-10-26.4A89 89 0 0 0 287 23ZM184.4 78.7c1.1 2.5 1.9 5.1 2.2 7.6v.4l.1.8.1 1.7c0 7-3.6 11.1-4 11.6a17.9 17.9 0 0 1-15.5 6.9h-.3l-.2.1a121 121 0 0 1-5 3c-1 .5-2 1-2.8 1.6-1.6.9-2.8 2-3.5 3.3l-.6 1-.3 1.6.1.8c.2.8.6 1.3 1.2 1.6.4.2 1 .3 1.6.1a7.9 7.9 0 0 0 1.8-.6l.6-.2 5.4-2.1a504.5 504.5 0 0 0 7-2.8 23 23 0 0 0 11.8-9v-.1l.6-.8c3-4.1 9.5-11.9 13.4-14.7l3-2.1 1.3-1-1.5-.6-1.2-.7-.4-.2-1.3-.7a74 74 0 0 1-1-.5l-.4-.3-1-.6-1.4-.9-.7-.4-7.8-5-2.7-1.8Zm0 0" style="stroke:none;fill-rule:nonzero;fill:#c9e265;fill-opacity:1"/>
  <g clip-path="url(#a)">
    <path d="M165 15.4a26 26 0 0 0-3-4.3 23 23 0 0 0-8.4-6c-6.4-2.4-14-1.7-22.3 2.4a18 18 0 0 0-8.7 10.7 27.2 27.2 0 0 0 2.9 21.7 53.8 53.8 0 0 0 13.7 17.5v.2l-.2.3-.2.5v.1l-.2.3v.2l-.3.3v.1a26.5 26.5 0 0 1-.7 1.3l-.3.4v.2l-.4.4v.2l-.5.6-.4.7-.1.1-.4.5-.2.2a449.3 449.3 0 0 1-10.8 6.4 31.9 31.9 0 0 0 1.7-18c-.7-3-1.8-6.3-3.8-9.6-2-3.3-12.6-19.3-32.4-9.2-4.9 2.5-8.7 8.6-10 16A35 35 0 0 0 88.3 78c-3 0-9.2-.9-17-7.7-2.8-2.4-11.3-9.8-22.5-7-1-.6-3.8-2-6.9-1.5-2.6.6-4.9 2.4-6.6 5.5-1.3 2.2-3.9 6.8-6.8 9.7l-.6.6c-1.8 1.6-4.7 4.3-3.4 8.5l.5 1.2a8.4 8.4 0 0 1-6.4 1.3l-.6-.1c-1.9-.5-5.5-1.3-7.7 2.3l-3.6 5.8 5-4-.4 1.7-.9 6.2 3.1-5.5s2-3.4 4.9-3.3h.4c2.3.1 5.8.2 8.9-2.4 1 .2 2.4.2 4.2-.1 2.5-.4 4.4-.6 8.9-1l3.6-.4c2.1-.3 5.2-1.4 7.2-4a9.3 9.3 0 0 0 2.2-6.8c1.2.1 3.7 1 8.3 5 10.6 9.1 25.8 17.7 40.9 11.7l1.8-.8h.2a28.6 28.6 0 0 0 2.3-1.3l.5-.4 1-.6.3-.2c.8.3 2.3.6 4.3 1a18.9 18.9 0 0 0-7.4 8.5 2 2 0 0 0-.5.2c-3.4 2.4-5 4.3-5 6l.1.8a3 3 0 0 0 1.3 1.6c1.6.8 5 .2 10.2-1.8l.3-.2c.9-.2 1.6-.5 2-.7l1-.5a3.4 3.4 0 0 0 0 .7c0 .8.5 1.6 1.2 2 1.6 1.2 5.2.8 10.9-1h.1c2-.3 4.6-.9 7.5-1.7h.4c4-1.2 12-3 16.6-4.2l.5-.1c2 2 4.4 4 7.4 5.7 0 0 1.2.6 3.1 1.1l-2.3 1.3-2.8 1.6a11 11 0 0 0-4.8 5.5c-4.1 2.5-4.6 4.9-4.6 5.5v.2c0 .8.4 1.5 1 2 .7.4 1.9 1.2 8.3-1.4a11 11 0 0 0 2.1-.7h.1l5.8-2.3 7.2-2.9c8-3.4 10.3-6.5 12.5-9.6l.6-.8a85.8 85.8 0 0 1 13-14.3l3.7-2.7.6-.4c10.3 4.4 18.9 3.5 25.4-2.4 3.1-2.9 6.4-8.2 6.8-15a44.3 44.3 0 0 1 3.4-.3 24.3 24.3 0 0 0 13.3 15.2 23 23 0 0 0 18.6 1 20 20 0 0 0 11.5-13v-.2l8 1.6c9.2 2 16.4 3.6 23 2.1 8-1.7 11.4-15.7 11.4-29.1v-1c-.2-12-3.3-26.7-11.5-28.2-6.7-1.3-17 0-27.8 1.8a21.3 21.3 0 0 0-7-6.2 13.7 13.7 0 0 0-11.3-.8c-3 1.2-7 4-9.4 10.8v.3a77 77 0 0 1-8.6.2c-.8-1.4-1.7-2.6-2.6-3.7l-1.4-1.5-.4-.5a53.8 53.8 0 0 0-5-4.8h-.1a72.8 72.8 0 0 0-1.3-1 36.6 36.6 0 0 0-4.7-3h-.1a39.3 39.3 0 0 0-7.3-2.8A39.2 39.2 0 0 0 204 10c-3 1-7 3.4-10.3 7-3.5.2-6.7.7-9.7 1.2a78.2 78.2 0 0 1-15 1.4h-.8l-1.3-.1c-.5-1.4-1.1-2.8-1.9-4.1Zm2.8 7h1.3l4.6-.2c3-.2 6.6-.5 10.8-1.3l6.9-1-.7 1.2c-3 0-5.7.7-8.4 1.4-.3 0-.5.3-.4.6 0 .3.3.5.5.4 2.5-.4 5-.7 7.4-.7l-.5 1.4a16 16 0 0 0-4 .6c-.2 0-.4.3-.3.6 0 .3.3.5.6.4 1-.1 2.2-.1 3.2 0l-.2 1.1-2.4.4c-.2.1-.4.3-.4.6s.3.5.6.5h2c-.1 2.2.1 4.6.9 7 1.6 5.5 7.8 11 14.3 16.8l.7.5a79.3 79.3 0 0 1 13.1 14.6l-2.3-1.2a.5.5 0 0 0-.6.1c-.2.2-.2.6 0 .7 1.2 1 2.4 1.9 3.7 2.7h.4v.4c-1.7 0-3.5-.6-5-1.6a.5.5 0 0 0-.7.8 9.6 9.6 0 0 0 5.4 2.5l-.3.2c-1.4.3-2.9.2-4.2-.3a15 15 0 0 1-3.9-2.2.5.5 0 0 0-.7.8 16 16 0 0 0 3 2.2 22 22 0 0 1-5.6-2.3c-1-.5-2-1-3-1.7l-1.3-.7-.5-.3-.3-.2c-.3 0-.5-.2-.7-.3l-.4-.3c-.2 0-.4-.2-.5-.3l-.5-.2-.5-.3-.5-.2-.5-.4-.5-.2a27 27 0 0 0-1-.5l-.6-.4-.5-.2-.6-.3-.5-.2-.6-.3-.5-.2-.6-.3-.5-.3-.6-.2-.5-.3-.6-.2a19.1 19.1 0 0 0-1.7-.7l-.6-.3-.5-.1-.7-.3a80.1 80.1 0 0 1-1.2-.4l-.5-.1-.7-.2-.5-.2-.6-.2-.6-.1-.6-.2-.6-.1-.6-.1-.6-.1-.6-.2h-.6a32.4 32.4 0 0 0-1.8-.3h-1.8a16.8 16.8 0 0 0-2.4 0h-1.2l-.6.1-.6.1a15.8 15.8 0 0 0-2.3.6h-.3l-1.1-1 3.4-2a.5.5 0 0 0-.4-.9l-4.4 1.7-1.4-1.3 6.8-3.5c.3-.1.4-.4.3-.7a.5.5 0 0 0-.7-.2l-6.3 2.5.6-1.7c2.6-1.6 5.4-3.2 8.2-4.5.2-.1.3-.4.3-.7a.5.5 0 0 0-.7-.3 76 76 0 0 0-7 3.1l.5-1.4 3.3-2c.3-.2.4-.5.3-.7a.5.5 0 0 0-.7-.3l-2.3 1 .2-1c4.4-3.2 8.9-6.2 11.5-7.5a10.1 10.1 0 0 1 3.9.9c1.4.6 2.8 1.5 4.1 2.4.4.2.8.1 1-.2.4-.3.3-.8 0-1.1-1.3-1-2.6-2.1-4.1-3-.8-.5-1.6-1-2.5-1.2-.8-.3-1.7-.5-2.6-.5l-3.6-.3c-1.8 0-4-.2-5.9-.4h-1l1-.8 1-.7a.7.7 0 0 0-.7-1.2h-.2l-.1.1-1.1.6-1.3.6-2 1-.5.1s-4.5 2-10.3 2.5a30.3 30.3 0 0 1-2.4.2 22.5 22.5 0 0 1-9.3-2c-1.2-.7-2.2-1.6-2.5-2.7v-.1l.8-.2 1.5-.3 1.8-.5a31.5 31.5 0 0 0 5.3-2c.6-.4 1.2-.7 1.7-1.2l.3-.2.5-.6.2-.2a4.8 4.8 0 0 1 .3-.1c.4 0 .8-.2 1.1-.3a29.3 29.3 0 0 0 9.8-4.2h1.3c.4 0 .8 0 1.2.2h.3a36.7 36.7 0 0 0 2.3.4Zm37-10.1 1.8-.6a13.5 13.5 0 0 0-3.7 5.3 16.4 16.4 0 0 0-1 2.7c-2.4 9.6 5.5 16.4 5.6 16.5l.4.2 2.3 2.5 9.9 9.6 5.4 5.2a24 24 0 0 1 7.8 16.7V72a19.8 19.8 0 0 1-6 12.7c-5.5 5-12.6 5.8-21.4 2.6a37.7 37.7 0 0 1-3-1.3 59.3 59.3 0 0 1-8-4.4 58.1 58.1 0 0 0 15.6 2.7c2.7 0 6.6-.7 9-3.6.9-1 1.4-2.2 1.8-3.6a11.6 11.6 0 0 0 .3-3v-.5a19.6 19.6 0 0 0-.7-4.2 1.2 1.2 0 0 0 0-.4l-.2-.4a66.2 66.2 0 0 0-14.8-17.7l-.7-.5c-6.2-5.6-12.2-10.8-13.6-15.6-2-6.2-.1-11.3 3-15.1a20 20 0 0 1 2.6-3c2.6-2.2 5.4-3.7 7.6-4.4Zm36 7 .5.4.4.4.3.3.6.6.2.2 1.2 1.4.2.2.3.4-.4.3-.8-.8c-1.8-1.6-3.7-3-5.7-4.3a.5.5 0 0 0-.6.8 50.9 50.9 0 0 1 5.6 5.2l-.5.4h-.3c0-.2 0-.2-.2-.3l-1.5-1.2-3.3-2.5a.5.5 0 0 0-.7.8l2 2 1 .9-1.8-.1-.7-.5-1.2-.8a.5.5 0 0 0-.6 0c-.3.2-.3.6 0 .8l.1.2.4.3-1.6.2-4 .4.4-.6c1.6-2.5 3.2-5.8 4.3-10.1a37.3 37.3 0 0 1 6.4 5Zm10 9.2a54.7 54.7 0 0 0 6.7-.2c-.2 3.7.5 10.9 5.3 22.4a54 54 0 0 1 3.6 14.4c0 1 0 1.9-.2 2.6a6 6 0 0 1-.2.7l-.2.5a165.4 165.4 0 0 0-7.2-.6h-2.2l-.8-.1a180 180 0 0 0-9.3-.1h-1.7a400.7 400.7 0 0 1-6.1.3l-1.2.2a14.2 14.2 0 0 0 .7-3.4 15.4 15.4 0 0 0-.1-5l-.2-1-.5-2-.7-1.7a.7.7 0 0 0-1.3.4l.5 1.8.4 1.8a16.3 16.3 0 0 1-.5 7l-.1.5a27.3 27.3 0 0 0-8.3-15l-5.4-5.2-9.9-9.6c-2.6-2.6-5-5.5-3.7-9.2 1.2-.4 2.5-.3 3.8.2a.5.5 0 0 0 .4-1 8 8 0 0 0-3.4-1l.5-.5c2.9 0 5.8.8 8.2 2.5a.5.5 0 0 0 .7-.8 15.1 15.1 0 0 0-5.4-2.8l1.2-.1c3.4.6 6.7 2.3 9.3 4.7a.5.5 0 0 0 .7-.7 19.5 19.5 0 0 0-4.6-3.7l2.7.6.3.2a6.2 6.2 0 0 1 1 .6c.6.5 1.2.8 2 1.1l1.4 1.1c.8.9 1.6 1.9 2.1 3 .6 1.2 1.1 2.4 1.5 3.7l.6 1.9.5 2c.1.3.5.6.8.5.4 0 .6-.4.6-.8l-.4-2-.5-2a26 26 0 0 0-2-5.4l-1-1.6a25.1 25.1 0 0 0 2.7-.1l2.2-.3a64.2 64.2 0 0 1 13.2.9l.7.1a31.4 31.4 0 0 0 2.8.2Zm17.3-11.8c2.5-1 5.1-.9 7.2-.3a9 9 0 0 0-2 .8 8.8 8.8 0 0 0-5 8.5 12.2 12.2 0 0 0 1.1 5.1c.2 1.8.8 3.2 1 3.8l2.6 6.7 3 7.7a45 45 0 0 1 4.5 23.4l-.3 1.2v.2c-2 5.7-5.3 9.6-10 11.5a21.1 21.1 0 0 1-16.7-1 25 25 0 0 1-10.2-9.5 21 21 0 0 1-1.7-3.8 128.4 128.4 0 0 1 3.5-.1c.7 1.2 1.6 2.3 2.6 3.3 1.3 1.3 2.9 2.3 4.7 3 3 1.2 9 1.7 12.8-1.3a9 9 0 0 0 3.3-5.3 13.3 13.3 0 0 0 .4-3.4l-.1-2.2a51.9 51.9 0 0 0-3.8-15.2 51.3 51.3 0 0 1-5-23.1 5.3 5.3 0 0 1 .5-1.4c1.6-4.4 4.2-7.3 7.6-8.6Zm44.7 5.6c5.3 1 9.2 11.5 9.3 25.5.2 14.7-3.6 26.3-9.2 27.5-6 1.3-12.6-.2-21.9-2.2l-7.9-1.6.2-1.6 9.6 1.3a.5.5 0 0 0 .2-1l-9.7-2v-1l6.2.9c.3 0 .6-.2.6-.5 0-.2-.1-.5-.4-.6a95 95 0 0 1-6.6-1.6v-.7l3.6.4a.5.5 0 0 0 .2-1l-4-1.1-.3-1h1.2c.3 0 .5 0 .6-.3 0-.3 0-.6-.4-.7l-1.7-.5c-.8-3.8-2.2-8-4.1-12.4a241.9 241.9 0 0 0-5.7-14.4 11.6 11.6 0 0 1-.9-4.4 7.3 7.3 0 0 1 .3-1.7v-.1c.2-.4.3-.8.6-1.1l5.8-1c1 1 2.2 2.7 3.2 6l.2.5c1.3 4 4.2 13.2 13 11 .4 0 .8-.5.8-1v-.1c0-.6-.4-1-1-1.2 0 0-2.9-.8-4.7-8.3l-.3-1.3v-.3l-.4-1v-.3l-.4-1.2-.1-.4-.2-.6-.3-.7v-.3l-1-2.2a88 88 0 0 1 25.6-1.7Zm-42.2 2.6.2-1a6 6 0 0 1 1.7-3.2l.3 2.2h-.1a7 7 0 0 0-.7.5l-.2.2-.1.1-.4.4-.2.2a6.4 6.4 0 0 0-.5.6Zm14-.5A27.2 27.2 0 0 1 287 30l.1.6.2.7a7 7 0 0 1-2.6 1.3l-.5-1.5-.2-.4c-.5-1.6-1-3-1.7-4.2a14.5 14.5 0 0 0 1.7-3.2l.7 1Zm3.2 9.4a21 21 0 0 0 3.2 7c-2.5-.7-4.2-3-5.5-6a9 9 0 0 0 2.3-1Zm-6.1-13.3.5.5a18 18 0 0 1-1.5 3.4 8.9 8.9 0 0 0-2.2-1.8l-.3-.2c-1-.4-2-.6-3-.4a17 17 0 0 0-.6-2.8c2.4-1.2 4.8-.8 7 1.3ZM221.2 10c4.2.3 7.8 1.5 11 3a30.1 30.1 0 0 1-5.2 11.6l-2.2-1h-.1c-2-.7-3.8-1-3.8-1a34 34 0 0 0-2.7-.4V20c0-2.7-.4-6-2-9.5l5-.5Zm-15.9 19.4a13 13 0 0 1-1-9.5l.1-.2.3.2c1.2 1.4 2.1 3 2.7 4.5l-.5.7-.3.6h-.1l-.2.6a7 7 0 0 0-1 3.1Zm.1-12.2.1-.3c1.6-3 3.5-4.8 8.3-6a20.6 20.6 0 0 1 2 11.2h-1.4c-1.9 0-3.6.3-5 1a18.2 18.2 0 0 0-2.4-4.2l-1.6-1.6Zm40.4 8 .2-.1.2.2h-.4Zm3 45.7a13 13 0 0 0 6.8 3.6c.2 0 .5 0 .6-.3 0-.3-.1-.6-.4-.7a12 12 0 0 1-4.6-2.7h1.1c1.1.8 2.3 1.5 3.6 1.9.2 0 .5 0 .6-.3.1-.2 0-.5-.2-.7L255 71l3 .2.6.3.3.2.3.2.3.1.4.2h.1l-.1.3c-.8 1.1-1.4 2.3-1.8 3.3-1.9 0-3.7-.3-4.8-.7-1-.3-1.7-.8-2.5-1.3-1-.7-1.8-1.5-2.5-2.4l.6-.4Zm13.9 1.7h1l.1-.1h.5a15.7 15.7 0 0 0 .3-.1h.2l.1-.1h.2l.3-.1a6.9 6.9 0 0 1-4.6 3.2c.5-1 1.1-1.9 1.9-2.8Zm-79.3 32.9c-2.1 2.9-4 5.6-11.4 8.7l-1.5.6-5.6 2.2-5.4 2.2-.4.1h-.1a20.8 20.8 0 0 1-1.7.6h-1c-.3-.2-.5-.5-.7-1v-.6c0-.4 0-.8.2-1.2l.5-1c.6-1 1.6-2 3.1-3l2.8-1.5 5-3c4.8.4 11-.8 16.3-7.2a19 19 0 0 0 4.2-14 .6.6 0 0 0 0-1.2h-.2c-.3-2.4-1-5-2.3-8 2.1 1.5 4.9 3.3 7.8 5l-.6 1c-.2 0-.2.3 0 .5.1.3.5.3.7.2l1.1-.8 1 .5c-1 .7-1.7 1.5-2.5 2.2-.2.2-.2.5 0 .7.1.2.5.3.7.1a22 22 0 0 1 3.2-2.1l1 .5a33.6 33.6 0 0 0-6.5 5.3c-.2.2-.2.6 0 .8.2.2.5.2.8 0 2.2-2 4.7-3.8 7.4-5.2l1.2.7-3 2.1a88 88 0 0 0-13.6 15l-.5.8Zm-32.7 16.4s0-1.2 2.2-2.9v.5c.3 1 .7 1.7 1.3 2.2-1.8.6-3.5 1-3.5.3Zm15.4-15.8a17 17 0 0 1-5-1.4 28.4 28.4 0 0 1-7.8-6.6 17 17 0 0 1-3.2-6.7 15.1 15.1 0 0 0 6 5.8 16.8 16.8 0 0 0 3.5 1.6c2.6.7 5.2.9 7.7.3 5.7-1.4 7.1-5.6 7.1-8.4a7.3 7.3 0 0 0-.1-1.3v-.1l-.4-1a24.7 24.7 0 0 0-1.2-2.7 41.2 41.2 0 0 0-5.6-8v-.1l-.1-.1-10.7-9.3h-.1l-.7-.6-1.5-1-2.9-2.5-4.8-4-1.2-.9-1-.9-2.7-2.1c-7.3-5.9-11-12-13.8-17.3a25 25 0 0 1-2.7-19.8 16 16 0 0 1 7.4-9.3c13.2-6.4 21.5-3 26.3 1.4a22.8 22.8 0 0 1 5.5 8 8 8 0 0 0-.5-.1c-3.7-5-8.3-6.3-10.9-6.6h-.4c-5.3-.4-9.4.7-12.3 3.4-3.8 3.4-4 8-4.1 8.6v1.3a17.5 17.5 0 0 0 .3 1.7l-.7.3c-1.3.4-2.5 1-3.7 1.7a9 9 0 0 0-2.1 1.7l-.2.2-.1.1v.2l-.2.2v.6a1.3 1.3 0 0 0 .7.8l.6.3a37 37 0 0 0 6 .2h.8c.8 1.4 2 2.4 3.3 3.1a39.6 39.6 0 0 0 8.4 8.8l6 5 1 .9 1 .9 4.4 3.6 5.6 5 .1.1c.1.1 6.4 4.3 13.8 14.1a29.8 29.8 0 0 1 4.4 12.5 15.8 15.8 0 0 1-3.6 12.1 16.9 16.9 0 0 1-15.6 6.3ZM149.6 99a590 590 0 0 0-14.8 3.7h-.4a65.9 65.9 0 0 1-8.7 1.8c-.9 0-1.3-.1-1.4-.3a2 2 0 0 1-.5-.9 3.8 3.8 0 0 1-.1-2l.2-.3a8 8 0 0 1 1.3-1.4 24.3 24.3 0 0 1 7.4-4c1.8-.6 3.8-1 5.7-1.5a91 91 0 0 0 9.3-3v.3c.6 2.6 1.6 5 3.1 7.3l-1.1.3Zm-32 7c0-.3 0-1 1.2-2l2.1-1c.2 1.3.7 2.4 1.3 3l.3.3c-2.4.5-5 .8-5-.3Zm-15 .4v-.2c0-.4.3-1.5 3-3.5 0 .7.2 1.3.5 1.9.3.7.8 1.2 1.3 1.6-2.2.6-4.6 1.1-4.8.2Zm9.2-2.5a6 6 0 0 1-1.5.3c-.5 0-.9 0-1.2-.2a1.8 1.8 0 0 1-.7-1v-1.2l.3-1c.5-1.3 1.5-3 3-4.5 1.6-1.6 3-2.7 7.2-4.5a40 40 0 0 0 32.8-19.1 29.5 29.5 0 0 0-4.3 16.4 48.6 48.6 0 0 1-9.6 2.7c-2 .4-4 .8-6 1.4a26.4 26.4 0 0 0-8.4 4.4 12.2 12.2 0 0 0-1.7 1.8l-.3.4-.8.4-1.2.5-6 2.7-.5.1-1.1.4Zm-9.2-12.5-.4.1a13.8 13.8 0 0 0 2.2-2.4l1.7.5h-.2l-.5.4-.3.1a24.7 24.7 0 0 1-2.5 1.3ZM52 74.9c-.4.3-.6.7-.6 1.2.3 2.6-.2 4.7-1.5 6.4-1.6 2-4 2.8-5.7 3l-3.5.3-9 1.1c-2 .4-3 .3-3.7 0l-.4-.2c-.4-.3-.5-.7-.7-1.2-.8-2.5.8-4.2 2.7-6l.7-.7c3.1-3.1 5.8-7.9 7.1-10.2 1.5-2.4 3.1-3.9 5-4.3 3-.6 5.5 1.4 5.5 1.4.3.2.7.3 1.1.2 10.2-2.8 18.2 4 20.8 6.3 10.5 9 18.2 8.6 20.6 8.1l2.8 2.5-1.4.8c-.3 0-.4.3-.4.6 0 .2.3.4.6.4a6.4 6.4 0 0 0 2.5-.9l1.3 1-1 .6a10.5 10.5 0 0 1-2.6 1 .5.5 0 0 0 .2 1 18.5 18.5 0 0 0 3-.7 7.9 7.9 0 0 0 2-1l1.3.8-.7.6c-.7.5-1.4 1-2.1 1.2-.7.4-1.5.6-2.3.8l-1.2.3-1.3.2a.5.5 0 0 0 .1 1h1.3l1.3-.3a15.7 15.7 0 0 0 5-1.8l1.2-.9.3-.2 1.8.9c-4.2 5.5-11.8 5-12.3 5-9.7-1-19-6.9-26-13-8-6.7-11-5.7-11.8-5.3Zm57.4 13.2-5-1.6c-7.5-3-12.6-8.2-12.8-8.3A33 33 0 0 1 82.4 50c1.1-6.6 4.5-12 8.7-14.2 13.9-7.1 22.8 0 26.9 4.9a16.3 16.3 0 0 0-7.2-2.5c-10.5-1-14.5 8.8-14.9 9.8a15.5 15.5 0 0 0-1 9.3c1.6 10.2 6.9 13.9 8.2 14.7a24.2 24.2 0 0 0 13.2 8.2h.2a57.5 57.5 0 0 0 5.5 1c.8.2 1.7.2 2.5.2h4.8a32.2 32.2 0 0 0 5.1-.8 36 36 0 0 0 12.1-5.2l-2.3 2.6a35.1 35.1 0 0 1-18.6 10.6l-1 .2a34 34 0 0 1-15.3-.7Zm30.5-26.4a29.4 29.4 0 0 0 .6-1v-.2l.3-.4V60l.2-.4v-.1l.2-.4V59l.9.6 2.2 1.9 7.4 6-2.8 3-.3.2a46.8 46.8 0 0 0-8.7-9Zm31.6 26.8-2.2 1.7a3.3 3.3 0 0 1-2.6-1.6v-.2l-.3-.3V88a5.5 5.5 0 0 1-.4-1h-.1v-.4l-.1-.2V86l-.1-.2V83l.1-.2a14.4 14.4 0 0 1 .2-1l2.8 1.7c1.4 2.1 2.2 3.8 2.7 5Zm-.3 3.8a6 6 0 0 0 .8-.3c-.4 1.7-1.6 3.8-5.2 4.7l-1 .2.1-1.3a8 8 0 0 1 1.7-3.4 6 6 0 0 0 2.3.4l.6-.1.4-.1h.3Zm-12 3.7a14 14 0 0 1-6.2-4.8c2.3-1.8 5.7-3.4 10.7-3.2l.4.8v.1l.5.8v.1a8.7 8.7 0 0 0 1 1.1 10 10 0 0 0-2 4.5c-.2.5-.3 1-.3 1.6a13.9 13.9 0 0 1-4.2-1Zm-39.3-17.5a34.9 34.9 0 0 1-2.7-.6 25 25 0 0 1-6.3-2.6l1 .3h.2l.9.2h.2a27.7 27.7 0 0 0 4 .3h2.6l.2-.1h.2l.6 1c.4.5.7 1.1 1 1.8-.7 0-1.3-.2-2-.3Zm-18.7-34-.4.1a11 11 0 0 1 9.8-4c1.3 0 2.9.4 4.5 1.2-2.4 2.8-6 4.3-8.6 5l-1-1a5.3 5.3 0 0 0-4.3-1.2ZM112 73.2h-.2l-.9-.3-.8-.2h-.2l-.7-.3h-.2l-.6-.3h-.1l-.6-.3h-.2l-.5-.3a52.2 52.2 0 0 1-.7-.4l-.4-.2a39.6 39.6 0 0 1-.4-.2l.2-.5v-.3l.3-.7V69l.3-1 .1-.3a88.1 88.1 0 0 0 .3-1.1 25 25 0 0 0 15.6 3.1c-.6 1.6-1.2 2.7-1.6 3.5l-.3.4h-.4l-1 .2h-4l-1-.2h-.3l-2-.4Zm-5-9.2.1-.4V63l.2-.7V62a33.8 33.8 0 0 0 .2-1.2l.1-.6.1-.5V59l.1-.4v-.1a43 43 0 0 0 16.3-3.2 29 29 0 0 1-1 11.8c-8.6 1-13.7-1.5-16-3.1Zm1-8v-1.8c0-2-.2-3.7-.6-5.2 3-.8 7-2.6 9.7-6 2.5 1.8 5 4.8 6.6 9.8A39.1 39.1 0 0 1 108 56Zm-9.8-7.3h.1l.3-.4.3-.3.1-.1.3-.2h.1l.3-.2.2-.1.3-.1a6.8 6.8 0 0 1 .5-.2h.1l.5-.1a3 3 0 0 1 2.5.6l.4.4.7 1.3c.5 1.2.7 2.9.8 5v.8a57 57 0 0 1-1.5 10.6v.1l-.2.7v.3l-.2.6-.1.4-.2.5-.1.4-.1.4c-1.8-1.3-5-4.8-6.2-12.2-.4-2.6-.3-6.1 1.1-8.2Zm31 30.3h-4.9c-.4-1.2-1-2.4-1.6-3.5l.3-.1.9-.3.4-.1.8-.3.4-.2a30.4 30.4 0 0 0 3.3-1.5l.3-.2.7-.4.2-.2a33.9 33.9 0 0 1 4.4 6c-1.8.4-3.3.6-4.5.7h-.7Zm22.7-1.2a18.9 18.9 0 0 1 11 2.6l.8.6-.1.3v.2a13.4 13.4 0 0 0-.3 1.3v.2l-.2.7v1.9a19 19 0 0 0-7.3 1.3 15 15 0 0 0-4 2.3 12.6 12.6 0 0 1-1.2-5.2c0-1.7.3-3.6 1-5.4v-.2l.2-.5Zm11.6-.3.9.8.3.2v.2l-.3-.2a16.5 16.5 0 0 0-4.9-2.3c-2.2-.7-4.5-.9-6.5-.8.8-1.8 1.7-3.2 2.4-4.2l.3-.4Zm-25.8-12.6.2-.2a32.8 32.8 0 0 0 .5-.8l.1-.1 1 .8a43.5 43.5 0 0 1 7.2 7.7 31.1 31.1 0 0 1-10 5.2v-.1a39.6 39.6 0 0 0-4.8-6.6h.1a28.5 28.5 0 0 0 1-.8l.6-.5.2-.2.5-.5.3-.2.6-.6v-.1l.7-.8.2-.2.3-.3.1-.2.3-.2c0-.2.2-.3.3-.5l.2-.2.4-.6Zm81.5 9.1v1.3a8 8 0 0 1-.5 2 6.2 6.2 0 0 1-2.6 3.1 16.2 16.2 0 0 1-.4-5.3h.7l.2-.1.8-.2h.2l.5-.2.3-.1a5.8 5.8 0 0 0 .7-.4h.1Zm-9.9 0 .8.3h.3c.3.2.6.3 1 .3h.1l1 .3h.3l.5.1a19.4 19.4 0 0 0 .6 6.4l-2 .4-2.8.1c-2 0-4-.3-6-.7.4-3.3 1.5-6.2 3.2-8.5l.3.2a31 31 0 0 0 2.3 1l.4.1Zm-5.1-2.5c-1.9 2.6-3 5.7-3.5 9.2-3.8-.9-7.4-2.1-10.3-3.3.7-3.1 2.3-7 5.8-10.3l.4.2.4.2.6.3.4.2.5.4c.2 0 .3 0 .4.2l.6.3.3.2.6.3.3.2.6.3.3.2.8.4 1.8 1Zm-11.2-6 .6.3.3.1a22.9 22.9 0 0 0-5.7 10.5 61.7 61.7 0 0 1-5.5-2.7l-2.4-3c.4-3.2 1.5-6.7 4-8.7a8.3 8.3 0 0 1 .9.2l.6.2.5.2.7.3h.3l1 .5h.1l1 .5h.4l.7.4.4.2.7.3.4.2.6.3.4.2Zm-17.9-5.2h1.2l.7.1h.4l.7.1.4.1.7.1h.5l.6.2.5.1.6.1.2.1c-1.8 2-2.8 4.5-3.3 7a65 65 0 0 0-7.7-7.5l.6-.1h.3l1-.2h2.7Zm-14.7-40.5c-1.7 1.2-3.6 2-5.5 2.7 1.5-1.2 3-2.8 4-5 .8.6 1.4 1.2 2.1 2l-.6.3ZM145.2 28a25 25 0 0 1-3.6 1.3l-.4.1-1.6.6-1.2.4h-.4l-.2.1h-.1l-.4.4v.9l.2.5h-1a61.9 61.9 0 0 1-4.8-.4h-.2l.2-.1 1-.7a21 21 0 0 1 3.5-1.3l.6-.2h.1l1-.4c.5 0 .9-.2 1.2-.3l.6-.1a138 138 0 0 1 6.9-1.6l.5-.2-.6.3-1.3.7Zm4-13.2h3c1.3 0 3 .5 4.8 1.4a13 13 0 0 1-5.8 6 9.9 9.9 0 0 0-2.5-2.9c-.8-.6-1.6-1-2.4-1.2.2-.8.3-1.8.3-2.8V15c.8-.2 1.7-.3 2.7-.3Zm-5.4 3.1-.5.1h-.1c-1 .1-1.9.4-2.7.7a9.6 9.6 0 0 1 3.7-2.8c0 .8-.2 1.4-.4 2Zm-5.5 7.4v-.9l.1-.3.1-.4.2-.3v-.1l.2-.3.1-.1.1-.2c.7-1 2-1.8 3.7-2.2h.4a9.9 9.9 0 0 1 1.2-.2c.4 0 .9 0 1.3.2 1.4.4 2.8 1.5 3.9 3.5h-.3a132.5 132.5 0 0 0-10.8 2.5l-.2-1.2Zm34 11.7 1.2.1-5.6 3.8a56.3 56.3 0 0 0 .7-4.1l3.7.2Zm-21 7.3.1-.3a26.2 26.2 0 0 0 12.7 2.2l-.2 1a66 66 0 0 1-2.2 6l-2.7-2.3-1-1-1.1-.9Zm14.8-7.8A56.3 56.3 0 0 1 165 43l-.2.8a27 27 0 0 1-12.5-2 39.6 39.6 0 0 0 .4-1.4l.4-1.3c5.6-.4 10.2-2.2 11.5-2.7l1.5.1Zm-15.5 2.6v.2l-.1.2-.4 1-.1.5v.2a24.5 24.5 0 0 1-.7 1.5 45.5 45.5 0 0 1-4.3-4.2c2 .4 3.8.6 5.6.6ZM37.3 80.6c1.5-1 3-1.2 3.6-.5 1.7 1.6-.1 3-1 3.3-2.5 1.1-3.9.4-4-.7 0-1 .8-1.7 1.4-2.1Zm0 0" style="stroke:none;fill-rule:nonzero;fill:#29242b;fill-opacity:1"/>
  </g>
  <g style="fill:#dbe6ad;fill-opacity:1">
    <path d="M2.6-12.5c0-1.9.2-3.6.7-5.2a12 12 0 0 1 2-4 9 9 0 0 1 7.3-3.4c1.4 0 2.7.2 3.7.7a9 9 0 0 1 2.7 2l.2-2.3H25V-.8c0 1.7-.3 3.2-.9 4.5A9.2 9.2 0 0 1 21.7 7c-1 .9-2.2 1.6-3.7 2a15.3 15.3 0 0 1-9.7-.2C7.5 8.5 6.7 8 6 7.6 5.2 7 4.6 6.5 4 5.8l3-3.9A4.6 4.6 0 0 0 9.5 4c1 .5 2.2.8 3.4.8 1.7 0 3.1-.5 4.1-1.5 1-1 1.5-2.3 1.5-4v-1.4C18-1.3 17-.7 16-.2a9 9 0 0 1-3.5.7 9 9 0 0 1-7.2-3.6 10 10 0 0 1-2-4 16 16 0 0 1-.7-5Zm6.3.5c0 1 .1 2 .3 2.8.3 1 .6 1.7 1 2.4a4.6 4.6 0 0 0 3.9 2.1c1.2 0 2-.2 2.8-.6.7-.5 1.3-1 1.7-1.8v-10.5c-.4-.7-1-1.3-1.7-1.8-.7-.4-1.6-.6-2.7-.6a4 4 0 0 0-2.3.6 5 5 0 0 0-1.7 1.6l-1 2.4a13 13 0 0 0-.3 2.9Zm0 0" style="stroke:none" transform="translate(205.9 120.8)"/>
  </g>
  <g style="fill:#dbe6ad;fill-opacity:1">
    <path d="M15.2.5c-2 0-3.6-.4-5.2-1a11.2 11.2 0 0 1-6.6-6.3c-.5-1.5-.8-3-.8-4.7v-.9c0-1.9.3-3.6.8-5.1a11.3 11.3 0 0 1 11-7.6c1.9 0 3.4.3 4.8.9A9.8 9.8 0 0 1 25-18c.5 1.5.7 3.1.7 5v2.6H9c.1.9.4 1.6.7 2.3a6.4 6.4 0 0 0 5.9 3.4 9.3 9.3 0 0 0 5.2-1.6L22-7.5 25.2-4l-1.5 1.6c-.6.6-1.4 1-2.2 1.5A13.7 13.7 0 0 1 15.2.5ZM14.4-20a5 5 0 0 0-2 .4c-.5.2-1 .6-1.5 1-.4.5-.8 1-1.1 1.7a9 9 0 0 0-.7 2.2h10.4v-.5a6 6 0 0 0-.4-1.9c-.2-.6-.5-1-1-1.5a5 5 0 0 0-3.7-1.4Zm0 0" style="stroke:none" transform="translate(233.9 120.8)"/>
  </g>
  <g style="fill:#dbe6ad;fill-opacity:1">
    <path d="m9-24.7.4 3.4a8.8 8.8 0 0 1 7.4-3.9c1.2 0 2.4.2 3.4.6 1 .4 2 1 2.7 1.8a8 8 0 0 1 1.7 3c.4 1.3.6 2.8.6 4.6V0H19v-15c0-1-.1-1.9-.3-2.5a3.5 3.5 0 0 0-2.4-2.3 8 8 0 0 0-2-.2 5 5 0 0 0-2.8.7 5 5 0 0 0-1.8 1.8V0H3.2v-24.7Zm0 0" style="stroke:none" transform="translate(262 120.8)"/>
  </g>
  <g style="fill:#dbe6ad;fill-opacity:1">
    <path d="m13.7-7.3.3 1.8.3-1.8 5.5-17.4h6.6L17 0h-6L1.7-24.7h6.7Zm0 0" style="stroke:none" transform="translate(290 120.8)"/>
  </g>
  <g style="fill:#dbe6ad;fill-opacity:1">
    <path d="M5-24.7h13.3v19.5H25V0H5v-5.2h7v-14.3H5Zm6.5-6.3c0-.5 0-1 .2-1.4a3.1 3.1 0 0 1 2-1.7c.4-.2.9-.3 1.4-.3 1.2 0 2 .3 2.7 1 .7.6 1 1.4 1 2.4s-.3 1.8-1 2.4c-.7.7-1.6 1-2.7 1l-1.5-.3c-.4-.1-.8-.4-1.1-.7l-.8-1-.2-1.4Zm0 0" style="stroke:none" transform="translate(318 120.8)"/>
  </g>
  <g clip-path="url(#b)">
    <path d="M29.7 51.2c0-2.5.3-4.8 1-6.9a16 16 0 0 1 2.6-5.3 12 12 0 0 1 9.9-4.7c2 0 3.6.3 5 1a10 10 0 0 1 3.5 2.7l.3-3h7.8v32a14 14 0 0 1-4.4 10.5 14 14 0 0 1-5 2.7 20.8 20.8 0 0 1-13-.3 15.9 15.9 0 0 1-5.7-4l3.9-5.2a10.3 10.3 0 0 0 8.1 3.8c2.3 0 4.2-.7 5.5-2 1.4-1.2 2-3 2-5.4v-1.9a10 10 0 0 1-3.5 2.6 11 11 0 0 1-4.6 1 12 12 0 0 1-9.8-4.9 20 20 0 0 1-3.6-12Zm8.6.6c0 1.4.1 2.7.4 4 .3 1.1.7 2.1 1.3 3 .5 1 1.3 1.6 2.1 2.1 1 .5 2 .8 3.1.8 1.5 0 2.8-.3 3.7-.9 1-.5 1.8-1.3 2.3-2.3v-14A6 6 0 0 0 49 42c-1-.5-2.1-.8-3.6-.8a6 6 0 0 0-5.3 3c-.6.8-1 1.9-1.3 3.1-.3 1.2-.4 2.5-.4 3.9Zm46 16.8A16.3 16.3 0 0 1 72 63.9a14.9 14.9 0 0 1-3.5-5c-.8-2-1.2-4-1.2-6.3v-1.2c0-2.5.4-4.9 1.2-7a15 15 0 0 1 8.4-9 19.1 19.1 0 0 1 12.8.1 13.3 13.3 0 0 1 7.7 8.4c.7 2 1 4.3 1 6.7v3.6H75.9a9.1 9.1 0 0 0 3 5.5c.7.6 1.6 1.2 2.6 1.5 1 .4 2.1.6 3.3.6a12.8 12.8 0 0 0 7-2.2c.6-.4 1.2-1 1.7-1.6l4.2 4.6c-.5.7-1.2 1.5-2 2.2a14 14 0 0 1-3 2 19.2 19.2 0 0 1-8.4 1.8Zm-1-27.4a6.3 6.3 0 0 0-4.7 2 6 6 0 0 0-1.6 2.2l-1 3h14v-.7a7 7 0 0 0-.5-2.6 6 6 0 0 0-3.4-3.4c-.8-.4-1.8-.5-2.8-.5Zm30.2-6.3.5 4.6a11.7 11.7 0 0 1 10-5.2c1.6 0 3.2.2 4.6.7a9 9 0 0 1 3.6 2.4c1 1 1.7 2.4 2.3 4 .6 1.8.9 3.8.9 6.2V68h-8.6V47.7a10 10 0 0 0-.4-3.2c-.3-.8-.7-1.5-1.3-2-.5-.5-1.2-.8-2-1-.7-.2-1.6-.3-2.6-.3a6.9 6.9 0 0 0-6.2 3.3V68h-8.5V34.9Zm44 23.3.4 2.4.4-2.3 7.3-23.4h8.9L161.9 68h-8l-12.6-33.1h8.9Zm25.8-23.3h18v26.2h9V68h-27v-7h9.4V41.9h-9.4Zm8.8-8.5c0-.6 0-1.2.3-1.8.3-.6.6-1 1-1.4.4-.4 1-.7 1.6-1a6 6 0 0 1 2-.3 5 5 0 0 1 3.6 1.3c.8.8 1.3 1.9 1.3 3.2 0 1.3-.5 2.4-1.3 3.3A5 5 0 0 1 197 31c-.8 0-1.4-.2-2-.4-.6-.2-1.2-.5-1.6-1a4 4 0 0 1-1-1.4c-.2-.5-.3-1.1-.3-1.8Zm0 0" style="fill:none;stroke-width:2.350001;stroke-linecap:butt;stroke-linejoin:miter;stroke:#29242b;stroke-opacity:1;stroke-miterlimit:4" transform="translate(186.1 70) scale(.74554)"/>
  </g>
</svg>
